<mxfile host="Electron" modified="2024-01-11T19:12:58.718Z" agent="Mozilla/5.0 (Macintosh; Intel Mac OS X 10_15_7) AppleWebKit/537.36 (KHTML, like Gecko) draw.io/22.1.18 Chrome/120.0.6099.199 Electron/28.1.2 Safari/537.36" etag="4P1ftA_4jSX0i34wD1-S" version="22.1.18" type="device">
  <diagram name="Page-1" id="WIU8k1cV8S0puOEJ7pt0">
    <mxGraphModel dx="1569" dy="877" grid="1" gridSize="10" guides="1" tooltips="1" connect="1" arrows="1" fold="1" page="1" pageScale="1" pageWidth="2336" pageHeight="1654" math="0" shadow="0">
      <root>
        <mxCell id="0" />
        <mxCell id="1" parent="0" />
        <mxCell id="wQWCABWHkLXudAePkiMl-4" value="" style="edgeStyle=orthogonalEdgeStyle;rounded=0;orthogonalLoop=1;jettySize=auto;html=1;" edge="1" parent="1" source="wQWCABWHkLXudAePkiMl-1" target="wQWCABWHkLXudAePkiMl-3">
          <mxGeometry relative="1" as="geometry" />
        </mxCell>
        <mxCell id="wQWCABWHkLXudAePkiMl-1" value="Fuente de datos&amp;nbsp;" style="shape=cylinder3;whiteSpace=wrap;html=1;boundedLbl=1;backgroundOutline=1;size=15;" vertex="1" parent="1">
          <mxGeometry x="230" y="140" width="60" height="80" as="geometry" />
        </mxCell>
        <mxCell id="wQWCABWHkLXudAePkiMl-2" value="Distribución de variable A" style="shape=parallelogram;perimeter=parallelogramPerimeter;whiteSpace=wrap;html=1;fixedSize=1;" vertex="1" parent="1">
          <mxGeometry x="560" y="160" width="120" height="60" as="geometry" />
        </mxCell>
        <mxCell id="wQWCABWHkLXudAePkiMl-3" value="Procesamiento X" style="rhombus;whiteSpace=wrap;html=1;" vertex="1" parent="1">
          <mxGeometry x="390" y="140" width="80" height="80" as="geometry" />
        </mxCell>
        <mxCell id="wQWCABWHkLXudAePkiMl-5" style="edgeStyle=orthogonalEdgeStyle;rounded=0;orthogonalLoop=1;jettySize=auto;html=1;entryX=0.068;entryY=0.347;entryDx=0;entryDy=0;entryPerimeter=0;" edge="1" parent="1" source="wQWCABWHkLXudAePkiMl-3" target="wQWCABWHkLXudAePkiMl-2">
          <mxGeometry relative="1" as="geometry" />
        </mxCell>
        <mxCell id="wQWCABWHkLXudAePkiMl-6" value="Pendiente" style="shape=parallelogram;perimeter=parallelogramPerimeter;whiteSpace=wrap;html=1;fixedSize=1;" vertex="1" parent="1">
          <mxGeometry x="590" y="370" width="120" height="60" as="geometry" />
        </mxCell>
        <mxCell id="wQWCABWHkLXudAePkiMl-8" style="edgeStyle=orthogonalEdgeStyle;rounded=0;orthogonalLoop=1;jettySize=auto;html=1;" edge="1" parent="1" source="wQWCABWHkLXudAePkiMl-7" target="wQWCABWHkLXudAePkiMl-6">
          <mxGeometry relative="1" as="geometry" />
        </mxCell>
        <mxCell id="wQWCABWHkLXudAePkiMl-7" value="A menos pendiente más regeneración" style="text;html=1;align=center;verticalAlign=middle;resizable=0;points=[];autosize=1;strokeColor=none;fillColor=none;" vertex="1" parent="1">
          <mxGeometry x="370" y="290" width="230" height="30" as="geometry" />
        </mxCell>
        <mxCell id="wQWCABWHkLXudAePkiMl-10" style="edgeStyle=orthogonalEdgeStyle;rounded=0;orthogonalLoop=1;jettySize=auto;html=1;" edge="1" parent="1" source="wQWCABWHkLXudAePkiMl-9" target="wQWCABWHkLXudAePkiMl-6">
          <mxGeometry relative="1" as="geometry" />
        </mxCell>
        <mxCell id="wQWCABWHkLXudAePkiMl-9" value="En las zonas muy pendientes conviene no&lt;br&gt;quitar árboles para no reactivar la erosión" style="text;html=1;align=center;verticalAlign=middle;resizable=0;points=[];autosize=1;strokeColor=none;fillColor=none;" vertex="1" parent="1">
          <mxGeometry x="320" y="450" width="250" height="40" as="geometry" />
        </mxCell>
        <mxCell id="wQWCABWHkLXudAePkiMl-11" value="Profundidad&lt;br&gt;potencial del suelo" style="shape=parallelogram;perimeter=parallelogramPerimeter;whiteSpace=wrap;html=1;fixedSize=1;" vertex="1" parent="1">
          <mxGeometry x="570" y="640" width="120" height="60" as="geometry" />
        </mxCell>
        <mxCell id="wQWCABWHkLXudAePkiMl-13" style="edgeStyle=orthogonalEdgeStyle;rounded=0;orthogonalLoop=1;jettySize=auto;html=1;entryX=0.5;entryY=0;entryDx=0;entryDy=0;" edge="1" parent="1" source="wQWCABWHkLXudAePkiMl-12" target="wQWCABWHkLXudAePkiMl-11">
          <mxGeometry relative="1" as="geometry" />
        </mxCell>
        <mxCell id="wQWCABWHkLXudAePkiMl-12" value="En zonas con suelos más profundos hay más regeneración" style="text;html=1;align=center;verticalAlign=middle;resizable=0;points=[];autosize=1;strokeColor=none;fillColor=none;" vertex="1" parent="1">
          <mxGeometry x="310" y="580" width="340" height="30" as="geometry" />
        </mxCell>
        <mxCell id="wQWCABWHkLXudAePkiMl-15" style="edgeStyle=orthogonalEdgeStyle;rounded=0;orthogonalLoop=1;jettySize=auto;html=1;" edge="1" parent="1" source="wQWCABWHkLXudAePkiMl-14" target="wQWCABWHkLXudAePkiMl-11">
          <mxGeometry relative="1" as="geometry" />
        </mxCell>
        <mxCell id="wQWCABWHkLXudAePkiMl-14" value="Mejor no cortemos árboles&lt;br&gt;en zonas con suelos poco profundos" style="text;html=1;align=center;verticalAlign=middle;resizable=0;points=[];autosize=1;strokeColor=none;fillColor=none;" vertex="1" parent="1">
          <mxGeometry x="330" y="770" width="220" height="40" as="geometry" />
        </mxCell>
        <mxCell id="wQWCABWHkLXudAePkiMl-19" value="" style="edgeStyle=orthogonalEdgeStyle;rounded=0;orthogonalLoop=1;jettySize=auto;html=1;" edge="1" parent="1" source="wQWCABWHkLXudAePkiMl-17" target="wQWCABWHkLXudAePkiMl-18">
          <mxGeometry relative="1" as="geometry" />
        </mxCell>
        <mxCell id="wQWCABWHkLXudAePkiMl-22" value="" style="edgeStyle=orthogonalEdgeStyle;rounded=0;orthogonalLoop=1;jettySize=auto;html=1;" edge="1" parent="1" source="wQWCABWHkLXudAePkiMl-17" target="wQWCABWHkLXudAePkiMl-18">
          <mxGeometry relative="1" as="geometry" />
        </mxCell>
        <mxCell id="wQWCABWHkLXudAePkiMl-23" value="" style="edgeStyle=orthogonalEdgeStyle;rounded=0;orthogonalLoop=1;jettySize=auto;html=1;" edge="1" parent="1" source="wQWCABWHkLXudAePkiMl-17" target="wQWCABWHkLXudAePkiMl-18">
          <mxGeometry relative="1" as="geometry" />
        </mxCell>
        <mxCell id="wQWCABWHkLXudAePkiMl-25" style="edgeStyle=orthogonalEdgeStyle;rounded=0;orthogonalLoop=1;jettySize=auto;html=1;entryX=0;entryY=0.5;entryDx=0;entryDy=0;" edge="1" parent="1" source="wQWCABWHkLXudAePkiMl-17" target="wQWCABWHkLXudAePkiMl-24">
          <mxGeometry relative="1" as="geometry" />
        </mxCell>
        <mxCell id="wQWCABWHkLXudAePkiMl-17" value="Modelo&lt;br&gt;digital de&lt;br&gt;elevaciones" style="shape=parallelogram;perimeter=parallelogramPerimeter;whiteSpace=wrap;html=1;fixedSize=1;" vertex="1" parent="1">
          <mxGeometry x="50" y="440" width="120" height="60" as="geometry" />
        </mxCell>
        <mxCell id="wQWCABWHkLXudAePkiMl-20" style="edgeStyle=orthogonalEdgeStyle;rounded=0;orthogonalLoop=1;jettySize=auto;html=1;entryX=0;entryY=0.5;entryDx=0;entryDy=0;" edge="1" parent="1" source="wQWCABWHkLXudAePkiMl-18" target="wQWCABWHkLXudAePkiMl-6">
          <mxGeometry relative="1" as="geometry" />
        </mxCell>
        <mxCell id="wQWCABWHkLXudAePkiMl-18" value="pendiente" style="rhombus;whiteSpace=wrap;html=1;" vertex="1" parent="1">
          <mxGeometry x="240" y="360" width="80" height="80" as="geometry" />
        </mxCell>
        <mxCell id="wQWCABWHkLXudAePkiMl-26" style="edgeStyle=orthogonalEdgeStyle;rounded=0;orthogonalLoop=1;jettySize=auto;html=1;" edge="1" parent="1" source="wQWCABWHkLXudAePkiMl-24" target="wQWCABWHkLXudAePkiMl-11">
          <mxGeometry relative="1" as="geometry" />
        </mxCell>
        <mxCell id="wQWCABWHkLXudAePkiMl-24" value="cálculo profundidad potencial del suelo" style="rhombus;whiteSpace=wrap;html=1;" vertex="1" parent="1">
          <mxGeometry x="240" y="630" width="80" height="80" as="geometry" />
        </mxCell>
        <mxCell id="wQWCABWHkLXudAePkiMl-27" value="Densidad de los pinares de repoblación 1" style="shape=parallelogram;perimeter=parallelogramPerimeter;whiteSpace=wrap;html=1;fixedSize=1;" vertex="1" parent="1">
          <mxGeometry x="415" y="1080" width="170" height="60" as="geometry" />
        </mxCell>
        <mxCell id="wQWCABWHkLXudAePkiMl-30" style="edgeStyle=orthogonalEdgeStyle;rounded=0;orthogonalLoop=1;jettySize=auto;html=1;entryX=1;entryY=0.5;entryDx=0;entryDy=0;" edge="1" parent="1" source="wQWCABWHkLXudAePkiMl-28" target="wQWCABWHkLXudAePkiMl-27">
          <mxGeometry relative="1" as="geometry" />
        </mxCell>
        <mxCell id="wQWCABWHkLXudAePkiMl-28" value="no tiene sentido reducir la densidad de los pinares poco densos&lt;br&gt;tampoco de los que tienen densidad media" style="text;html=1;align=center;verticalAlign=middle;resizable=0;points=[];autosize=1;strokeColor=none;fillColor=none;" vertex="1" parent="1">
          <mxGeometry x="670" y="1090" width="360" height="40" as="geometry" />
        </mxCell>
        <mxCell id="wQWCABWHkLXudAePkiMl-34" value="" style="edgeStyle=orthogonalEdgeStyle;rounded=0;orthogonalLoop=1;jettySize=auto;html=1;" edge="1" parent="1" source="wQWCABWHkLXudAePkiMl-31" target="wQWCABWHkLXudAePkiMl-33">
          <mxGeometry relative="1" as="geometry" />
        </mxCell>
        <mxCell id="wQWCABWHkLXudAePkiMl-39" style="edgeStyle=orthogonalEdgeStyle;rounded=0;orthogonalLoop=1;jettySize=auto;html=1;entryX=0;entryY=0.5;entryDx=0;entryDy=0;" edge="1" parent="1" source="wQWCABWHkLXudAePkiMl-31" target="wQWCABWHkLXudAePkiMl-37">
          <mxGeometry relative="1" as="geometry" />
        </mxCell>
        <mxCell id="wQWCABWHkLXudAePkiMl-31" value="Inventarios forestales" style="shape=cylinder3;whiteSpace=wrap;html=1;boundedLbl=1;backgroundOutline=1;size=15;" vertex="1" parent="1">
          <mxGeometry x="90" y="1000" width="60" height="80" as="geometry" />
        </mxCell>
        <mxCell id="wQWCABWHkLXudAePkiMl-35" style="edgeStyle=orthogonalEdgeStyle;rounded=0;orthogonalLoop=1;jettySize=auto;html=1;entryX=0;entryY=0.5;entryDx=0;entryDy=0;" edge="1" parent="1" source="wQWCABWHkLXudAePkiMl-32" target="wQWCABWHkLXudAePkiMl-33">
          <mxGeometry relative="1" as="geometry" />
        </mxCell>
        <mxCell id="wQWCABWHkLXudAePkiMl-41" style="edgeStyle=orthogonalEdgeStyle;rounded=0;orthogonalLoop=1;jettySize=auto;html=1;exitX=1;exitY=0.5;exitDx=0;exitDy=0;entryX=0;entryY=0.5;entryDx=0;entryDy=0;" edge="1" parent="1" source="wQWCABWHkLXudAePkiMl-32" target="wQWCABWHkLXudAePkiMl-37">
          <mxGeometry relative="1" as="geometry" />
        </mxCell>
        <mxCell id="wQWCABWHkLXudAePkiMl-47" value="" style="edgeStyle=orthogonalEdgeStyle;rounded=0;orthogonalLoop=1;jettySize=auto;html=1;" edge="1" parent="1" source="wQWCABWHkLXudAePkiMl-32" target="wQWCABWHkLXudAePkiMl-46">
          <mxGeometry relative="1" as="geometry" />
        </mxCell>
        <mxCell id="wQWCABWHkLXudAePkiMl-32" value="Mapa de vegetación" style="shape=parallelogram;perimeter=parallelogramPerimeter;whiteSpace=wrap;html=1;fixedSize=1;" vertex="1" parent="1">
          <mxGeometry x="50" y="1200" width="120" height="60" as="geometry" />
        </mxCell>
        <mxCell id="wQWCABWHkLXudAePkiMl-36" style="edgeStyle=orthogonalEdgeStyle;rounded=0;orthogonalLoop=1;jettySize=auto;html=1;entryX=0;entryY=0.5;entryDx=0;entryDy=0;" edge="1" parent="1" source="wQWCABWHkLXudAePkiMl-33" target="wQWCABWHkLXudAePkiMl-27">
          <mxGeometry relative="1" as="geometry" />
        </mxCell>
        <mxCell id="wQWCABWHkLXudAePkiMl-33" value="Vía 1" style="rhombus;whiteSpace=wrap;html=1;" vertex="1" parent="1">
          <mxGeometry x="240" y="1060" width="80" height="80" as="geometry" />
        </mxCell>
        <mxCell id="wQWCABWHkLXudAePkiMl-40" style="edgeStyle=orthogonalEdgeStyle;rounded=0;orthogonalLoop=1;jettySize=auto;html=1;entryX=0;entryY=0.5;entryDx=0;entryDy=0;" edge="1" parent="1" source="wQWCABWHkLXudAePkiMl-37" target="wQWCABWHkLXudAePkiMl-38">
          <mxGeometry relative="1" as="geometry" />
        </mxCell>
        <mxCell id="wQWCABWHkLXudAePkiMl-37" value="Vía 2" style="rhombus;whiteSpace=wrap;html=1;" vertex="1" parent="1">
          <mxGeometry x="250" y="1240" width="80" height="80" as="geometry" />
        </mxCell>
        <mxCell id="wQWCABWHkLXudAePkiMl-38" value="Densidad de los pinares de repoblación 2" style="shape=parallelogram;perimeter=parallelogramPerimeter;whiteSpace=wrap;html=1;fixedSize=1;" vertex="1" parent="1">
          <mxGeometry x="390" y="1250" width="170" height="60" as="geometry" />
        </mxCell>
        <mxCell id="wQWCABWHkLXudAePkiMl-42" value="Bases de datos relacionales" style="text;html=1;align=center;verticalAlign=middle;resizable=0;points=[];autosize=1;strokeColor=none;fillColor=none;" vertex="1" parent="1">
          <mxGeometry x="225" y="990" width="170" height="30" as="geometry" />
        </mxCell>
        <mxCell id="wQWCABWHkLXudAePkiMl-43" value="Mapa de proximidad&lt;br&gt;(distancia de cada píxel con pinos al píxel con encinas más cercano)" style="shape=parallelogram;perimeter=parallelogramPerimeter;whiteSpace=wrap;html=1;fixedSize=1;" vertex="1" parent="1">
          <mxGeometry x="350" y="1490" width="230" height="60" as="geometry" />
        </mxCell>
        <mxCell id="wQWCABWHkLXudAePkiMl-48" style="edgeStyle=orthogonalEdgeStyle;rounded=0;orthogonalLoop=1;jettySize=auto;html=1;entryX=0;entryY=0.5;entryDx=0;entryDy=0;" edge="1" parent="1" source="wQWCABWHkLXudAePkiMl-46" target="wQWCABWHkLXudAePkiMl-43">
          <mxGeometry relative="1" as="geometry" />
        </mxCell>
        <mxCell id="wQWCABWHkLXudAePkiMl-46" value="análisis de proximidad" style="rhombus;whiteSpace=wrap;html=1;" vertex="1" parent="1">
          <mxGeometry x="70" y="1480" width="80" height="80" as="geometry" />
        </mxCell>
        <mxCell id="wQWCABWHkLXudAePkiMl-49" value="Mapa de distancias a carreteras" style="shape=parallelogram;perimeter=parallelogramPerimeter;whiteSpace=wrap;html=1;fixedSize=1;" vertex="1" parent="1">
          <mxGeometry x="415" y="1690" width="210" height="70" as="geometry" />
        </mxCell>
        <mxCell id="wQWCABWHkLXudAePkiMl-52" value="" style="edgeStyle=orthogonalEdgeStyle;rounded=0;orthogonalLoop=1;jettySize=auto;html=1;" edge="1" parent="1" source="wQWCABWHkLXudAePkiMl-50" target="wQWCABWHkLXudAePkiMl-51">
          <mxGeometry relative="1" as="geometry" />
        </mxCell>
        <mxCell id="wQWCABWHkLXudAePkiMl-50" value="mapa de carreteras" style="shape=parallelogram;perimeter=parallelogramPerimeter;whiteSpace=wrap;html=1;fixedSize=1;" vertex="1" parent="1">
          <mxGeometry x="40" y="1695" width="120" height="60" as="geometry" />
        </mxCell>
        <mxCell id="wQWCABWHkLXudAePkiMl-55" value="" style="edgeStyle=orthogonalEdgeStyle;rounded=0;orthogonalLoop=1;jettySize=auto;html=1;" edge="1" parent="1" source="wQWCABWHkLXudAePkiMl-51" target="wQWCABWHkLXudAePkiMl-54">
          <mxGeometry relative="1" as="geometry" />
        </mxCell>
        <mxCell id="wQWCABWHkLXudAePkiMl-51" value="convertir a&lt;br&gt;raster" style="rhombus;whiteSpace=wrap;html=1;" vertex="1" parent="1">
          <mxGeometry x="190" y="1685" width="80" height="80" as="geometry" />
        </mxCell>
        <mxCell id="wQWCABWHkLXudAePkiMl-56" style="edgeStyle=orthogonalEdgeStyle;rounded=0;orthogonalLoop=1;jettySize=auto;html=1;" edge="1" parent="1" source="wQWCABWHkLXudAePkiMl-54" target="wQWCABWHkLXudAePkiMl-49">
          <mxGeometry relative="1" as="geometry" />
        </mxCell>
        <mxCell id="wQWCABWHkLXudAePkiMl-54" value="calcular distancias" style="rhombus;whiteSpace=wrap;html=1;" vertex="1" parent="1">
          <mxGeometry x="300" y="1685" width="80" height="80" as="geometry" />
        </mxCell>
        <mxCell id="wQWCABWHkLXudAePkiMl-57" value="Los píxeles más cercanos a encinares son más&lt;br&gt;adecuados para nuestro trabajo" style="text;html=1;align=center;verticalAlign=middle;resizable=0;points=[];autosize=1;strokeColor=none;fillColor=none;" vertex="1" parent="1">
          <mxGeometry x="225" y="1380" width="280" height="40" as="geometry" />
        </mxCell>
        <mxCell id="wQWCABWHkLXudAePkiMl-58" style="edgeStyle=orthogonalEdgeStyle;rounded=0;orthogonalLoop=1;jettySize=auto;html=1;entryX=0.536;entryY=0.001;entryDx=0;entryDy=0;entryPerimeter=0;" edge="1" parent="1" source="wQWCABWHkLXudAePkiMl-57" target="wQWCABWHkLXudAePkiMl-43">
          <mxGeometry relative="1" as="geometry" />
        </mxCell>
        <mxCell id="wQWCABWHkLXudAePkiMl-59" value="Los sitios más cercanos a carreteras&lt;br&gt;son más adecuados para nuestro trabajo" style="text;html=1;align=center;verticalAlign=middle;resizable=0;points=[];autosize=1;strokeColor=none;fillColor=none;" vertex="1" parent="1">
          <mxGeometry x="290" y="1820" width="240" height="40" as="geometry" />
        </mxCell>
        <mxCell id="wQWCABWHkLXudAePkiMl-60" style="edgeStyle=orthogonalEdgeStyle;rounded=0;orthogonalLoop=1;jettySize=auto;html=1;entryX=0.405;entryY=0.989;entryDx=0;entryDy=0;entryPerimeter=0;" edge="1" parent="1" source="wQWCABWHkLXudAePkiMl-59" target="wQWCABWHkLXudAePkiMl-49">
          <mxGeometry relative="1" as="geometry" />
        </mxCell>
      </root>
    </mxGraphModel>
  </diagram>
</mxfile>
